<mxfile host="drawio-plugin" modified="2024-03-07T10:27:08.778Z" agent="5.0 (Windows NT 10.0; Win64; x64) AppleWebKit/537.36 (KHTML, like Gecko) Chrome/111.0.0.0 Safari/537.36" version="20.5.3" etag="oaR3YVNKid_my_L26CwD" type="embed"><diagram id="lYL0eXkQjZcvWhlsk4ew" name="Page-1"><mxGraphModel dx="1376" dy="1158" grid="1" gridSize="10" guides="1" tooltips="1" connect="1" arrows="1" fold="1" page="0" pageScale="1" pageWidth="850" pageHeight="1100" background="none" math="0" shadow="0"><root><mxCell id="0"/><mxCell id="1" parent="0"/><mxCell id="node4" value="&lt;p style=&quot;margin:0px;margin-top:4px;text-align:center;&quot;&gt;&lt;b&gt;CurrentConditionsDisplay&lt;/b&gt;&lt;/p&gt;&lt;hr size=&quot;1&quot;/&gt;&lt;p style=&quot;margin:0 0 0 4px;line-height:1.6;&quot;&gt;+ CurrentConditionsDisplay(Subject): &lt;/p&gt;&lt;hr size=&quot;1&quot;/&gt;&lt;p style=&quot;margin:0 0 0 4px;line-height:1.6;&quot;&gt;+ display(): void&lt;br/&gt;+ update(float, float, float): void&lt;/p&gt;" style="verticalAlign=top;align=left;overflow=fill;fontSize=14;fontFamily=Helvetica;html=1;rounded=0;shadow=0;comic=0;labelBackgroundColor=none;strokeWidth=1;" parent="1" vertex="1"><mxGeometry x="326" y="264" width="268" height="121" as="geometry"/></mxCell><mxCell id="node2" value="&lt;p style=&quot;margin:0px;margin-top:4px;text-align:center;&quot;&gt;&lt;b&gt;Main&lt;/b&gt;&lt;/p&gt;&lt;hr size=&quot;1&quot;/&gt;&lt;p style=&quot;margin:0 0 0 4px;line-height:1.6;&quot;&gt;+ Main(): &lt;/p&gt;&lt;hr size=&quot;1&quot;/&gt;&lt;p style=&quot;margin:0 0 0 4px;line-height:1.6;&quot;&gt;+ main(String[]): void&lt;/p&gt;" style="verticalAlign=top;align=left;overflow=fill;fontSize=14;fontFamily=Helvetica;html=1;rounded=0;shadow=0;comic=0;labelBackgroundColor=none;strokeWidth=1;" parent="1" vertex="1"><mxGeometry x="-2" y="696" width="164" height="95" as="geometry"/></mxCell><mxCell id="node0" value="&lt;p style=&quot;margin:0px;margin-top:4px;text-align:center;&quot;&gt;&lt;i&gt;&amp;lt;&amp;lt;interface&amp;gt;&amp;gt;&lt;/i&gt;&lt;br/&gt;&lt;b&gt;Observer&lt;/b&gt;&lt;/p&gt;&lt;hr size=&quot;1&quot;/&gt;&lt;p style=&quot;margin:0 0 0 4px;line-height:1.6;&quot;&gt;+ update(float, float, float): void&lt;/p&gt;" style="verticalAlign=top;align=left;overflow=fill;fontSize=14;fontFamily=Helvetica;html=1;rounded=0;shadow=0;comic=0;labelBackgroundColor=none;strokeWidth=1;" parent="1" vertex="1"><mxGeometry x="24" y="-91" width="232" height="79" as="geometry"/></mxCell><mxCell id="node1" value="&lt;p style=&quot;margin:0px;margin-top:4px;text-align:center;&quot;&gt;&lt;i&gt;&amp;lt;&amp;lt;interface&amp;gt;&amp;gt;&lt;/i&gt;&lt;br/&gt;&lt;b&gt;Subject&lt;/b&gt;&lt;/p&gt;&lt;hr size=&quot;1&quot;/&gt;&lt;p style=&quot;margin:0 0 0 4px;line-height:1.6;&quot;&gt;+ registerObserver(Observer): void&lt;br/&gt;+ notifyObservers(): void&lt;br/&gt;+ removeObserver(Observer): void&lt;/p&gt;" style="verticalAlign=top;align=left;overflow=fill;fontSize=14;fontFamily=Helvetica;html=1;rounded=0;shadow=0;comic=0;labelBackgroundColor=none;strokeWidth=1;" parent="1" vertex="1"><mxGeometry x="14" y="65" width="253" height="139" as="geometry"/></mxCell><mxCell id="node3" value="&lt;p style=&quot;margin:0px;margin-top:4px;text-align:center;&quot;&gt;&lt;b&gt;WeatherData&lt;/b&gt;&lt;/p&gt;&lt;hr size=&quot;1&quot;/&gt;&lt;p style=&quot;margin:0 0 0 4px;line-height:1.6;&quot;&gt;+ WeatherData(): &lt;/p&gt;&lt;hr size=&quot;1&quot;/&gt;&lt;p style=&quot;margin:0 0 0 4px;line-height:1.6;&quot;&gt;+ removeObserver(Observer): void&lt;br/&gt;+ setMeasurements(float, float, float): void&lt;br/&gt;+ registerObserver(Observer): void&lt;br/&gt;+ notifyObservers(): void&lt;br/&gt;+ measurementsChanged(): void&lt;/p&gt;" style="verticalAlign=top;align=left;overflow=fill;fontSize=14;fontFamily=Helvetica;html=1;rounded=0;shadow=0;comic=0;labelBackgroundColor=none;strokeWidth=1;" parent="1" vertex="1"><mxGeometry x="-151" y="408" width="302" height="184" as="geometry"/></mxCell><mxCell id="edge3" value="" style="html=1;rounded=1;edgeStyle=orthogonalEdgeStyle;dashed=1;startArrow=none;endArrow=openThin;endSize=12;exitX=0.000;exitY=0.500;exitDx=0;exitDy=0;entryX=0.250;entryY=1.000;entryDx=0;entryDy=0;" parent="1" source="node4" target="node4" edge="1"><mxGeometry width="50" height="50" relative="1" as="geometry"><Array as="points"><mxPoint x="160" y="320"/><mxPoint x="160" y="560"/><mxPoint x="393" y="560"/></Array></mxGeometry></mxCell><mxCell id="edge0" value="" style="html=1;rounded=1;edgeStyle=orthogonalEdgeStyle;dashed=1;startArrow=none;endArrow=block;endSize=12;strokeColor=#008200;exitX=0.750;exitY=0.000;exitDx=0;exitDy=0;entryX=0.833;entryY=1.001;entryDx=0;entryDy=0;strokeWidth=2;" parent="1" source="node4" target="node0" edge="1"><mxGeometry width="50" height="50" relative="1" as="geometry"><Array as="points"><mxPoint x="527" y="220"/><mxPoint x="300" y="220"/><mxPoint x="300" y="40"/><mxPoint x="217" y="40"/></Array></mxGeometry></mxCell><mxCell id="edge4" value="" style="html=1;rounded=1;edgeStyle=orthogonalEdgeStyle;dashed=1;startArrow=none;endArrow=openThin;endSize=12;exitX=0.250;exitY=0.000;exitDx=0;exitDy=0;entryX=0.750;entryY=1.000;entryDx=0;entryDy=0;" parent="1" source="node4" target="node1" edge="1"><mxGeometry width="50" height="50" relative="1" as="geometry"><Array as="points"><mxPoint x="393" y="240"/><mxPoint x="203" y="240"/></Array></mxGeometry></mxCell><mxCell id="edge7" value="" style="html=1;rounded=1;edgeStyle=orthogonalEdgeStyle;dashed=1;startArrow=none;endArrow=openThin;endSize=12;exitX=0.500;exitY=0.000;exitDx=0;exitDy=0;entryX=0.750;entryY=1.000;entryDx=0;entryDy=0;" parent="1" source="node2" target="node4" edge="1"><mxGeometry width="50" height="50" relative="1" as="geometry"><Array as="points"><mxPoint x="80" y="620"/><mxPoint x="527" y="620"/></Array></mxGeometry></mxCell><mxCell id="label44" value="«create»" style="edgeLabel;resizable=0;html=1;align=left;verticalAlign=top;strokeColor=default;" parent="edge7" vertex="1" connectable="0"><mxGeometry x="278" y="600" as="geometry"/></mxCell><mxCell id="edge6" value="" style="html=1;rounded=1;edgeStyle=orthogonalEdgeStyle;dashed=1;startArrow=none;endArrow=openThin;endSize=12;exitX=0.500;exitY=0.000;exitDx=0;exitDy=0;entryX=0.750;entryY=1.000;entryDx=0;entryDy=0;" parent="1" source="node2" target="node3" edge="1"><mxGeometry width="50" height="50" relative="1" as="geometry"><Array as="points"><mxPoint x="80" y="620"/><mxPoint x="76" y="620"/></Array></mxGeometry></mxCell><mxCell id="label38" value="«create»" style="edgeLabel;resizable=0;html=1;align=left;verticalAlign=top;strokeColor=default;" parent="edge6" vertex="1" connectable="0"><mxGeometry x="24" y="596" as="geometry"/></mxCell><mxCell id="edge5" value="" style="html=1;rounded=1;edgeStyle=orthogonalEdgeStyle;dashed=1;startArrow=none;endArrow=openThin;endSize=12;exitX=0.500;exitY=0.000;exitDx=0;exitDy=0;entryX=0.500;entryY=1.001;entryDx=0;entryDy=0;" parent="1" source="node1" target="node0" edge="1"><mxGeometry width="50" height="50" relative="1" as="geometry"><Array as="points"/></mxGeometry></mxCell><mxCell id="edge8" value="" style="html=1;rounded=1;edgeStyle=orthogonalEdgeStyle;dashed=0;startArrow=diamondThinstartSize=12;endArrow=openThin;endSize=12;exitX=0.250;exitY=0.000;exitDx=0;exitDy=0;entryX=0.167;entryY=1.001;entryDx=0;entryDy=0;" parent="1" source="node3" target="node0" edge="1"><mxGeometry width="50" height="50" relative="1" as="geometry"><Array as="points"><mxPoint x="-75" y="380"/><mxPoint x="-20" y="380"/><mxPoint x="-20" y="40"/><mxPoint x="63" y="40"/></Array></mxGeometry></mxCell><mxCell id="label48" value="1" style="edgeLabel;resizable=0;html=1;align=left;verticalAlign=top;strokeColor=default;" parent="edge8" vertex="1" connectable="0"><mxGeometry x="-86" y="383" as="geometry"/></mxCell><mxCell id="label52" value="*" style="edgeLabel;resizable=0;html=1;align=left;verticalAlign=top;strokeColor=default;" parent="edge8" vertex="1" connectable="0"><mxGeometry x="44" y="-20" as="geometry"/></mxCell><mxCell id="label53" value="observers" style="edgeLabel;resizable=0;html=1;align=left;verticalAlign=top;strokeColor=default;" parent="edge8" vertex="1" connectable="0"><mxGeometry x="63" y="-23" as="geometry"/></mxCell><mxCell id="edge1" value="" style="html=1;rounded=1;edgeStyle=orthogonalEdgeStyle;dashed=1;startArrow=none;endArrow=block;endSize=12;strokeColor=#008200;exitX=0.750;exitY=0.000;exitDx=0;exitDy=0;entryX=0.250;entryY=1.000;entryDx=0;entryDy=0;strokeWidth=2;" parent="1" source="node3" target="node1" edge="1"><mxGeometry width="50" height="50" relative="1" as="geometry"><Array as="points"><mxPoint x="76" y="380"/><mxPoint x="77" y="380"/></Array></mxGeometry></mxCell><mxCell id="edge2" value="" style="html=1;rounded=1;edgeStyle=orthogonalEdgeStyle;dashed=1;startArrow=none;endArrow=openThin;endSize=12;exitX=0.000;exitY=0.500;exitDx=0;exitDy=0;entryX=0.250;entryY=1.000;entryDx=0;entryDy=0;" parent="1" source="node3" target="node3" edge="1"><mxGeometry width="50" height="50" relative="1" as="geometry"><Array as="points"><mxPoint x="-340" y="500"/><mxPoint x="-340" y="780"/><mxPoint x="-75" y="780"/></Array></mxGeometry></mxCell></root></mxGraphModel></diagram></mxfile>